<svg id="Capa_1" enable-background="new 0 0 512 512" height="512" viewBox="0 0 512 512" width="512" xmlns="http://www.w3.org/2000/svg"><g><circle cx="319.962" cy="230.298" r="10.02"/><path d="m457.122 261.694h-1.955v-22.446c0-100.463-74.772-183.776-171.586-197.248 1.591-3.662 2.479-7.698 2.479-11.939.001-16.576-13.485-30.061-30.06-30.061s-30.061 13.485-30.061 30.061c0 4.241.888 8.277 2.479 11.939-96.813 13.472-171.585 96.785-171.585 197.248v22.446h-1.955c-16.575 0-30.061 13.485-30.061 30.061s13.485 30.061 30.061 30.061h99.917c-.847 2.002-1.509 4.108-1.949 6.305l-8.608 43.037c-26.35 14.45-30.317 42.882-30.725 55.46l-30.667 20.156c-4.759 3.127-5.932 9.837-2.506 14.395l35.232 46.865c3.178 4.227 9.303 5.237 13.671 2.246l67.332-46.108c36.917-13.065 54.124-38.862 63.861-58.2 10.879-7.443 60.751-41.392 94.014-61.124 8.191-4.859 12.412-13.846 11.117-23.033h91.552c16.575 0 30.061-13.485 30.061-30.061s-13.483-30.06-30.058-30.06zm-211.142-231.633c0-5.525 4.495-10.02 10.02-10.02s10.02 4.495 10.02 10.02-4.495 10.02-10.02 10.02-10.02-4.495-10.02-10.02zm-169.107 209.187c0-98.771 80.356-179.127 179.127-179.127 92.821 0 169.371 70.968 178.258 161.492h-69.038c-5.534 0-10.02 4.486-10.02 10.02s4.486 10.02 10.02 10.02h69.907v20.04h-358.254zm268.767 84.865c.416 1.518-.059 2.695-1.413 3.499-37.911 22.489-96.702 62.913-97.292 63.319-1.425.98-2.572 2.314-3.328 3.869-12.977 26.665-29.885 42.352-54.823 50.864-.86.294-62.952 42.664-62.952 42.664l-23.057-30.67 26.312-17.295c3.058-2.01 4.777-5.528 4.484-9.176-.026-.326-2.319-32.715 23.549-44.052 2.995-1.313 5.162-4.005 5.803-7.213l9.574-47.873c1.186-5.93 6.437-10.234 12.485-10.234 3.777 0 7.211 1.58 9.668 4.448 2.458 2.869 3.492 6.505 2.912 10.237-.01.067-.02.134-.029.2l-4.745 35.213c-.506 3.76 1.154 7.483 4.289 9.619s7.208 2.318 10.521.471l107.956-60.189h27.072c1.582.001 2.596.774 3.014 2.299zm-130.466-2.298h59.227l-59.078 32.938 2.059-15.284c.919-6.048.116-12.144-2.208-17.654zm241.948-20.04h-402.244c-5.525 0-10.02-4.495-10.02-10.02s4.495-10.02 10.02-10.02h402.243c5.525 0 10.02 4.495 10.02 10.02s-4.494 10.02-10.019 10.02z"/><path d="m187.066 102.392c-31.238 14.588-55.824 41.536-67.455 73.934-1.869 5.209.837 10.947 6.045 12.817 1.119.401 2.261.592 3.385.592 4.109 0 7.963-2.548 9.432-6.637 9.838-27.406 30.64-50.204 57.073-62.548 5.014-2.342 7.18-8.304 4.839-13.319-2.342-5.015-8.305-7.181-13.319-4.839z"/></g></svg>